<svg xmlns="http://www.w3.org/2000/svg" viewBox="0 0 760 310" role="img" aria-label="Trace comparison">
<rect width="760" height="310" fill="white" />
<g color="black" font-family="Arial, sans-serif">
<text x="40" y="36" font-size="16">Redacted Trace Comparison</text>
<text x="40" y="88" font-size="14">filesystem</text>
<text x="190" y="80" font-size="11">model turns</text>
<rect x="320" y="68" width="12.331006836287354" height="16" fill="currentColor" opacity="0.7" />
<text x="690" y="80" font-size="11">1416</text>
<text x="190" y="110" font-size="11">retrievals</text>
<rect x="320" y="98" width="7.132128954039084" height="16" fill="currentColor" opacity="0.7" />
<text x="690" y="110" font-size="11">819</text>
<text x="190" y="140" font-size="11">retries</text>
<rect x="320" y="128" width="7.132128954039084" height="16" fill="currentColor" opacity="0.7" />
<text x="690" y="140" font-size="11">819</text>
<text x="190" y="170" font-size="11">retrieved tokens / 100</text>
<rect x="320" y="158" width="360" height="16" fill="currentColor" opacity="0.7" />
<text x="690" y="170" font-size="11">41339.7</text>
<text x="40" y="198" font-size="14">memongo-context</text>
<text x="190" y="190" font-size="11">model turns</text>
<rect x="320" y="178" width="5.93908662595196" height="16" fill="currentColor" opacity="0.7" />
<text x="690" y="190" font-size="11">682</text>
<text x="190" y="220" font-size="11">retrievals</text>
<rect x="320" y="208" width="3.326585177585995" height="16" fill="currentColor" opacity="0.7" />
<text x="690" y="220" font-size="11">382</text>
<text x="190" y="250" font-size="11">retries</text>
<rect x="320" y="238" width="0.7140837292200303" height="16" fill="currentColor" opacity="0.7" />
<text x="690" y="250" font-size="11">82</text>
<text x="190" y="280" font-size="11">retrieved tokens / 100</text>
<rect x="320" y="268" width="99.89787538319712" height="16" fill="currentColor" opacity="0.7" />
<text x="690" y="280" font-size="11">11471.5</text>
</g>
</svg>