<svg xmlns="http://www.w3.org/2000/svg" viewBox="0 0 760 360" role="img" aria-label="Trace comparison">
<rect width="760" height="360" fill="white" />
<g color="black" font-family="Arial, sans-serif">
<text x="40" y="36" font-size="16">Redacted Trace Comparison</text>
<text x="40" y="88" font-size="14">filesystem</text>
<text x="190" y="80" font-size="11">model turns</text>
<rect x="320" y="68" width="12.300918038935373" height="16" fill="currentColor" opacity="0.7" />
<text x="690" y="80" font-size="11">1403</text>
<text x="190" y="110" font-size="11">retrievals</text>
<rect x="320" y="98" width="7.066671375183114" height="16" fill="currentColor" opacity="0.7" />
<text x="690" y="110" font-size="11">806</text>
<text x="190" y="140" font-size="11">retries</text>
<rect x="320" y="128" width="7.066671375183114" height="16" fill="currentColor" opacity="0.7" />
<text x="690" y="140" font-size="11">806</text>
<text x="190" y="170" font-size="11">retrieved tokens / 100</text>
<rect x="320" y="158" width="360" height="16" fill="currentColor" opacity="0.7" />
<text x="690" y="170" font-size="11">41060.3</text>
<text x="40" y="180" font-size="14">mongodb</text>
<text x="190" y="172" font-size="11">model turns</text>
<rect x="320" y="160" width="8.986771910127409" height="16" fill="currentColor" opacity="0.7" />
<text x="690" y="172" font-size="11">1025</text>
<text x="190" y="202" font-size="11">retrievals</text>
<rect x="320" y="190" width="6.461708192940392" height="16" fill="currentColor" opacity="0.7" />
<text x="690" y="202" font-size="11">737</text>
<text x="190" y="232" font-size="11">retries</text>
<rect x="320" y="220" width="3.840201069888591" height="16" fill="currentColor" opacity="0.7" />
<text x="690" y="232" font-size="11">438</text>
<text x="190" y="262" font-size="11">retrieved tokens / 100</text>
<rect x="320" y="250" width="32.92288546006062" height="16" fill="currentColor" opacity="0.7" />
<text x="690" y="262" font-size="11">3755.1</text>
</g>
</svg>